<svg version="1.1" id="Layer_1" xmlns="http://www.w3.org/2000/svg" xmlns:xlink="http://www.w3.org/1999/xlink" x="0px" y="0px"
	 width="100%" viewBox="0 0 528 544" enable-background="new 0 0 528 544" xml:space="preserve">
<path fill="#000000" opacity="1.000000" stroke="none" 
	d="
M198.383865,370.594055 
	C220.859665,381.681274 244.249313,386.778809 268.864868,384.569153 
	C319.377136,380.034760 361.796600,341.959167 369.639038,292.511902 
	C374.412018,262.418030 367.578430,235.539551 345.836517,213.491547 
	C313.738647,180.941803 258.247223,180.728912 226.541092,213.161697 
	C212.625214,227.396530 207.337982,244.954605 209.083176,264.856873 
	C210.100754,276.461334 213.528137,286.982208 220.442169,296.310791 
	C238.598328,320.807434 279.411713,321.262177 298.039978,297.158844 
	C311.085266,280.279327 305.562927,252.164749 281.828094,246.094925 
	C269.477539,242.936462 255.145325,248.094452 251.756912,261.306549 
	C250.844940,264.862488 249.180237,267.947784 244.557358,267.303711 
	C239.851593,266.648071 238.193100,263.203186 237.749878,259.229523 
	C236.689209,249.720215 241.083420,242.373550 248.086807,236.602478 
	C261.514343,225.537689 284.525269,225.059631 299.325439,234.241684 
	C331.358032,254.114746 329.753357,304.851837 292.683929,323.928680 
	C272.772797,334.175507 252.194305,334.707306 231.165497,328.242371 
	C196.008514,317.433899 170.349457,287.632172 165.800781,250.460419 
	C160.353485,205.945190 177.967438,170.836258 212.411102,143.623016 
	C232.970901,127.379135 256.818665,118.498062 282.650818,114.553619 
	C311.270386,110.183556 339.617737,112.565971 367.039429,120.621986 
	C417.067017,135.319214 458.282532,163.369141 487.364471,207.276535 
	C502.071136,229.480331 510.300415,254.351517 513.467407,280.952881 
	C519.056885,327.902618 509.463196,371.609131 486.025879,412.367920 
	C461.209473,455.525024 426.065002,487.683594 381.171722,509.139160 
	C360.941437,518.807678 339.781311,525.792053 317.569611,529.026489 
	C298.908661,531.743958 280.208527,531.629700 261.363373,529.619568 
	C241.035172,527.451233 221.286209,523.309265 202.278229,515.994263 
	C173.450851,504.900452 146.661804,490.291351 124.249886,468.571289 
	C123.098877,467.455811 121.466316,466.649750 121.306519,464.369019 
	C123.453995,463.114960 125.278816,464.420044 127.159058,465.217529 
	C149.395477,474.649078 171.753479,483.743835 195.656723,488.175873 
	C254.160065,499.023254 307.654541,488.307159 354.193848,450.038666 
	C393.580566,417.651611 418.490723,375.992828 428.237122,326.050446 
	C433.534760,298.904297 432.269806,271.521362 424.355530,244.574432 
	C415.708344,215.132034 401.048859,189.510178 378.830261,168.291656 
	C358.963043,149.318634 335.672699,137.219650 308.175507,134.310684 
	C264.961121,129.738983 229.055130,144.263565 201.771240,177.943359 
	C186.993912,196.184814 179.572876,217.707565 181.414200,241.633118 
	C182.366882,254.012054 185.502716,265.887665 191.471359,276.893219 
	C191.852646,277.596222 192.174255,278.412750 193.898438,278.545105 
	C193.752579,275.270721 193.823425,272.036072 193.432968,268.858093 
	C190.307449,243.419067 196.936707,220.967438 214.374802,202.102905 
	C232.401688,182.601440 255.251373,173.449936 281.505066,172.672760 
	C319.427704,171.550125 349.395111,186.681488 370.668884,218.081070 
	C381.643616,234.279510 387.129211,252.575714 387.224487,272.196106 
	C387.255493,278.577393 388.549255,284.347687 391.368408,289.925018 
	C395.512238,298.123108 398.455719,306.792114 401.447723,315.449585 
	C406.803986,330.947968 404.352509,346.087738 398.840698,360.820343 
	C387.874237,390.132538 370.040009,414.692657 346.362732,435.139282 
	C319.744385,458.125641 288.967804,472.320038 254.176498,476.014801 
	C200.654724,481.698700 151.287766,469.589813 109.217148,435.063080 
	C75.911865,407.729889 55.084183,371.824615 43.811184,330.330627 
	C36.839359,304.668518 34.848385,278.348083 36.962479,252.121201 
	C42.242393,186.620010 69.190193,131.232162 117.724052,86.577019 
	C151.711319,55.305923 191.291519,34.667198 236.318649,24.793995 
	C262.794769,18.988516 289.549744,18.383795 316.597260,21.392216 
	C366.383789,26.929836 409.032990,48.384090 448.346619,78.020737 
	C456.611267,84.251091 457.377258,93.496468 459.237854,102.346588 
	C461.046692,110.950607 462.465240,119.636711 464.052307,128.287292 
	C464.202545,129.106125 464.328308,129.929398 464.472168,130.749435 
	C464.960693,133.534439 464.709412,136.145615 462.218353,137.929794 
	C459.804413,139.658722 457.430328,138.714249 455.213440,137.391586 
	C447.920471,133.040298 440.673370,128.612106 433.376434,124.267517 
	C409.727264,110.186729 384.518768,99.941055 357.606384,94.137093 
	C335.593323,89.389725 313.409760,87.689644 290.785004,89.038849 
	C261.090576,90.809631 233.248764,98.264893 207.814850,113.461906 
	C168.120789,137.179489 140.283951,170.661819 129.012756,216.063629 
	C115.408089,270.864990 137.917770,335.399780 190.552780,366.445374 
	C192.988525,367.882080 195.538635,369.124817 198.383865,370.594055 
M241.322159,459.119354 
	C245.866730,459.484222 248.565277,458.621246 248.943039,452.868439 
	C249.866364,438.806885 251.580154,424.793274 253.148605,410.779694 
	C253.906937,404.004395 252.904449,402.084839 246.211487,401.571960 
	C236.210052,400.805603 226.469803,398.753815 216.912933,395.973450 
	C212.200790,394.602570 210.152725,396.134644 208.716171,400.311340 
	C203.414536,415.725677 198.164764,431.162506 192.505905,446.446625 
	C190.791229,451.077820 192.137253,452.562714 196.470383,453.621643 
	C210.904205,457.149017 225.486008,459.246918 241.322159,459.119354 
M77.994637,253.375305 
	C81.884079,254.838348 85.783630,256.275208 89.660492,257.770844 
	C94.900726,259.792480 95.922195,259.086945 96.673058,253.551773 
	C99.048180,236.043167 103.201591,218.971893 109.987465,202.625473 
	C111.369545,199.296173 111.202606,197.309006 107.865112,195.276932 
	C98.775513,189.742630 89.891228,183.869720 80.953300,178.088165 
	C75.296486,174.429001 75.091667,174.438965 72.472618,180.493546 
	C64.120239,199.802124 58.860382,219.979584 55.520493,240.705246 
	C55.027958,243.761658 56.274586,245.411728 58.997673,246.394897 
	C65.097275,248.597137 71.176567,250.855637 77.994637,253.375305 
M438.444153,356.709198 
	C437.443634,360.428223 440.057678,361.464111 442.726379,362.099243 
	C455.811066,365.213318 468.929108,368.186920 482.022003,371.266968 
	C484.882416,371.939850 486.015106,370.177460 486.821899,368.063477 
	C493.220642,351.297180 496.108032,333.792664 497.680786,316.014557 
	C497.979370,312.639526 496.464935,311.064453 493.108154,311.003906 
	C490.111389,310.949860 487.118622,310.696625 484.121796,310.620880 
	C473.307159,310.347565 462.491943,310.089783 451.675995,309.876862 
	C448.658661,309.817474 446.536652,310.830750 446.382721,314.382202 
	C445.766937,328.591370 442.177887,342.256561 438.444153,356.709198 
M103.265678,173.208206 
	C107.135345,175.797501 111.096825,178.261841 114.845329,181.016037 
	C117.790215,183.179779 119.777328,182.967880 121.612587,179.649612 
	C130.007156,164.471664 139.606171,150.114471 151.432144,137.366028 
	C154.234314,134.345276 153.967545,132.157928 151.057098,129.454544 
	C143.261139,122.213272 135.559311,114.865829 127.986267,107.392181 
	C125.535278,104.973366 123.878761,105.551292 121.792252,107.697899 
	C107.590057,122.309174 94.980766,138.111694 84.953484,155.923843 
	C83.325737,158.815338 83.922829,160.325089 86.512123,161.979919 
	C91.973694,165.470428 97.296158,169.178589 103.265678,173.208206 
M54.371288,284.233093 
	C55.034416,289.997040 55.609608,295.772766 56.378620,301.522552 
	C58.078144,314.229736 60.767418,326.720459 64.994446,338.845154 
	C65.683586,340.821869 66.083786,342.983459 68.822556,343.555786 
	C76.138916,345.084778 83.386734,346.944031 90.708534,348.443848 
	C96.414047,349.612549 97.506882,348.306091 96.430862,342.392975 
	C92.721443,322.008331 91.422516,301.505615 93.564598,280.850433 
	C93.919090,277.432251 92.947716,275.273529 89.372383,274.063629 
	C79.130920,270.597900 68.980583,266.859558 58.826550,263.140717 
	C55.631359,261.970520 54.367245,263.352966 54.329254,266.289551 
	C54.256004,271.952271 54.345367,277.617126 54.371288,284.233093 
M464.529510,413.039703 
	C469.033936,405.839203 473.611115,398.683685 477.293427,391.003296 
	C478.649963,388.173859 478.353973,386.230469 474.949036,385.450867 
	C462.002472,382.486542 449.120880,379.247528 436.038361,376.871490 
	C432.126892,376.161102 430.316925,377.536377 428.827698,380.956848 
	C423.496521,393.201447 416.868835,404.739105 409.442535,415.844910 
	C407.734741,418.398834 405.301300,420.586182 404.363678,423.899902 
	C405.146301,424.455566 405.736511,425.086517 406.461365,425.357605 
	C418.151031,429.729645 429.858215,434.054871 441.560425,438.393402 
	C444.202057,439.372772 445.899536,438.162170 447.558807,436.177032 
	C453.552155,429.006195 458.919098,421.385468 464.529510,413.039703 
M312.397797,438.893311 
	C313.383667,438.275421 314.316498,437.542603 315.364319,437.058899 
	C320.856689,434.523590 321.996399,430.567291 320.315582,424.859467 
	C318.635559,419.154419 317.923737,413.170746 316.615417,407.347900 
	C315.396515,401.923157 315.411224,396.147125 312.494476,391.233917 
	C311.884094,391.233917 311.517365,391.136383 311.232452,391.247925 
	C298.834808,396.101501 286.239960,400.194489 272.892395,401.523956 
	C270.858307,401.726562 269.602997,402.974945 269.403473,405.124298 
	C268.056122,419.638977 266.466461,434.136475 265.444214,448.673920 
	C264.904205,456.353455 266.314453,457.221527 273.737823,455.240112 
	C287.140137,451.662842 299.736206,446.122131 312.397797,438.893311 
M184.650879,418.261108 
	C187.603500,410.311371 190.562836,402.364136 193.505707,394.410797 
	C194.820755,390.856812 194.422897,387.595947 190.755386,385.888885 
	C180.893250,381.298523 171.970627,375.189423 163.044205,369.095673 
	C160.181168,367.141113 158.741348,367.820282 157.225830,370.615112 
	C151.120224,381.874847 144.945724,393.098511 138.652756,404.254333 
	C137.276184,406.694611 137.777893,408.402222 139.218658,410.579559 
	C145.606232,420.232635 153.417343,428.612671 161.984726,436.294312 
	C165.659149,439.588806 169.707199,442.490387 174.955200,445.010010 
	C178.214706,436.057037 181.318069,427.532990 184.650879,418.261108 
M471.132996,295.106445 
	C476.764435,296.018463 482.441528,295.582550 488.098297,295.635590 
	C497.178680,295.720673 497.243134,295.662323 496.688324,286.617310 
	C495.720642,270.841370 491.504547,255.853210 485.548615,241.291519 
	C484.468262,238.650131 483.153992,237.326599 479.907257,238.168671 
	C469.611725,240.838882 459.233276,243.188660 448.892609,245.685989 
	C444.929565,246.643097 443.433075,249.255356 444.200531,253.156708 
	C446.645233,265.584290 447.581604,278.168091 448.128876,290.789368 
	C448.248474,293.547607 449.503204,294.504669 452.210052,294.517517 
	C458.204987,294.546021 464.198761,294.831573 471.132996,295.106445 
M201.589539,86.881142 
	C195.618591,80.388054 189.637421,73.904305 183.683365,67.395752 
	C182.063309,65.624832 180.414825,64.840462 177.985031,66.067451 
	C164.390244,72.932495 151.888397,81.414513 140.268280,91.229866 
	C138.443710,92.771042 137.882629,94.373978 139.833008,96.247025 
	C148.573944,104.641335 157.305176,113.045723 166.192764,121.593475 
	C172.711441,116.595711 178.588608,111.703735 184.862320,107.388214 
	C191.159164,103.056778 197.847977,99.294609 204.372040,95.294411 
	C206.420868,94.038177 206.528214,92.491608 205.062775,90.745682 
	C204.100677,89.599419 203.053772,88.524315 201.589539,86.881142 
M373.071625,485.378021 
	C376.527374,486.678802 378.876373,491.238495 383.715546,488.429443 
	C396.544006,480.982727 409.003998,472.987000 420.165894,463.199890 
	C424.027222,459.814178 428.549408,456.873657 431.333710,452.406525 
	C429.633820,450.523529 427.928467,449.872803 426.206635,449.255554 
	C416.822205,445.891266 407.302765,442.852478 398.107727,439.032623 
	C393.486084,437.112671 390.880005,438.264679 387.917358,441.765839 
	C379.073975,452.216522 369.053711,461.453705 357.801056,469.288422 
	C354.609497,471.510559 354.961578,473.361328 357.920776,475.324127 
	C362.770172,478.540588 367.611450,481.769318 373.071625,485.378021 
M263.296936,74.556282 
	C264.959686,72.303596 263.094299,70.771057 262.019775,69.280266 
	C258.228271,64.020111 253.610352,59.238785 250.536301,53.604534 
	C245.318329,44.040768 238.821274,41.162731 228.245102,45.124657 
	C217.904083,48.998497 207.078278,51.583122 196.814285,56.389275 
	C197.322098,57.445606 197.494293,58.114075 197.894730,58.590836 
	C205.601776,67.766800 213.834274,76.451859 222.426147,84.801865 
	C223.645981,85.987343 224.893127,86.278992 226.489227,85.631126 
	C238.219681,80.869629 250.504242,77.976700 263.296936,74.556282 
M321.653290,56.806145 
	C318.332062,51.815769 314.974182,46.849205 311.706909,41.823723 
	C310.329529,39.705112 308.524750,38.635914 305.991699,38.361073 
	C293.040771,36.955894 280.103027,37.057308 267.159302,38.409481 
	C262.226105,38.924828 261.226685,40.707664 264.051941,44.837120 
	C269.408356,52.666195 275.090332,60.273365 280.406342,68.128822 
	C282.447479,71.144981 284.844910,71.914246 288.377747,71.868065 
	C301.008820,71.702942 313.658875,70.975349 326.275024,72.231949 
	C329.640320,72.567146 330.324249,71.206841 328.780731,68.512810 
	C326.629852,64.758842 324.295959,61.109726 321.653290,56.806145 
M115.172173,349.503937 
	C118.176491,362.620270 121.587311,375.594849 128.238480,387.903412 
	C129.440002,387.301208 129.851654,386.570953 130.256516,385.836945 
	C135.641037,376.075470 140.991013,366.294739 146.432571,356.565186 
	C147.746796,354.215332 146.292404,352.909668 145.018768,351.338409 
	C129.600876,332.317657 118.552429,311.105438 112.873863,287.194397 
	C112.577026,285.944489 113.201302,284.078857 110.183006,283.408020 
	C107.879471,305.636566 110.758125,327.206543 115.172173,349.503937 
M440.944733,231.608978 
	C452.624237,229.419052 464.110748,226.528503 475.055481,222.944824 
	C475.593292,220.354935 474.558868,218.952347 473.705902,217.574722 
	C466.309753,205.629059 457.106018,195.182190 447.000031,185.483963 
	C445.535583,184.078613 444.011383,183.806488 442.017029,184.176224 
	C435.827484,185.323685 429.601990,186.281540 423.382172,187.260178 
	C417.835480,188.132904 417.377838,189.015457 420.445618,193.868713 
	C426.592285,203.592728 431.596893,213.864441 435.742432,224.590576 
	C436.721069,227.122650 437.227356,230.161072 440.944733,231.608978 
M359.062286,396.525970 
	C363.969849,391.409119 364.514709,385.487427 362.395874,379.010529 
	C361.936493,377.606232 361.972137,376.044434 361.554504,374.621307 
	C359.957275,369.178497 360.477844,363.167999 357.517456,357.717804 
	C356.519226,358.391083 355.904480,358.667786 355.470886,359.118652 
	C347.843048,367.050934 339.793457,374.506775 330.613983,380.627777 
	C327.576996,382.652893 328.006622,385.354492 328.588074,388.160980 
	C330.470276,397.246002 332.446075,406.311707 334.300446,415.402283 
	C334.609985,416.919769 334.758209,418.466003 336.353699,419.110718 
	C338.120850,419.824768 339.089447,418.338257 340.149200,417.361328 
	C346.895020,411.142883 352.749359,404.106934 359.062286,396.525970 
M353.910919,502.430725 
	C356.376251,501.265808 359.305847,500.859436 361.348450,497.893921 
	C355.032776,493.561798 348.730591,489.603943 342.868805,485.075989 
	C339.557709,482.518280 336.905975,482.550629 333.431763,484.463989 
	C324.992981,489.111420 316.296387,493.253723 307.213074,496.530548 
	C303.844208,497.745911 300.215973,498.373932 296.460327,501.194031 
	C302.548889,505.377869 307.972198,509.611084 314.313660,512.452026 
	C315.250488,512.871765 316.614441,512.535278 317.735413,512.316406 
	C329.785797,509.963318 341.752747,507.291534 353.910919,502.430725 
M81.430687,374.133484 
	C93.357147,395.724731 108.492630,414.504669 128.954712,428.682465 
	C126.881996,423.913513 124.249474,419.564423 121.681541,415.177521 
	C113.394058,401.019775 107.773949,385.725555 102.583336,370.248962 
	C101.836700,368.022766 101.102974,365.886414 98.254547,365.338654 
	C92.227272,364.179565 86.259613,362.705841 80.224968,361.591492 
	C76.755058,360.950775 75.665619,362.574890 77.183517,365.949158 
	C78.341911,368.524261 79.762276,370.981537 81.430687,374.133484 
M350.911072,73.618805 
	C358.081726,77.681175 366.035278,78.416328 374.329590,80.001724 
	C374.147888,78.397324 374.243195,77.682442 373.979492,77.143074 
	C369.744812,68.481247 365.490692,59.828594 361.172119,51.208344 
	C360.306183,49.479797 358.670074,48.625076 356.809784,48.154156 
	C350.372162,46.524509 343.943542,44.859131 337.511200,43.208572 
	C336.226349,42.878872 334.809845,42.297153 333.817139,43.598396 
	C332.656128,45.120277 333.815247,46.446297 334.583862,47.682720 
	C339.852325,56.158207 345.155579,64.612083 350.911072,73.618805 
M382.433411,358.965088 
	C389.582489,340.594452 389.603485,319.975189 382.164520,312.498627 
	C379.243805,321.369812 375.081329,329.493011 370.916473,337.613129 
	C369.844482,339.703156 370.139832,341.882843 370.575012,343.959778 
	C371.764709,349.637695 373.017883,355.312531 374.566284,360.899750 
	C375.147003,362.995209 374.963928,365.654663 377.632874,367.110413 
	C380.199066,365.276520 380.918488,362.309998 382.433411,358.965088 
M425.251251,169.404083 
	C425.564240,167.529419 424.115997,166.723221 422.946289,165.897293 
	C408.763428,155.882675 393.613586,147.695602 377.220673,141.884308 
	C376.414368,141.598465 375.604645,141.467133 375.085083,142.419128 
	C374.918793,143.614395 375.746735,144.244293 376.531738,144.832230 
	C386.956360,152.640015 396.070923,161.806458 404.528778,171.668152 
	C405.135773,172.375885 406.266052,173.310974 406.951813,173.168930 
	C412.901672,171.936447 419.219543,172.738098 425.251251,169.404083 
M387.477448,70.070084 
	C389.169952,73.496750 390.801697,76.955292 392.576050,80.339043 
	C393.792114,82.658119 394.069672,85.771317 396.655518,87.015396 
	C401.682831,89.434105 406.887482,91.484253 411.988068,93.673920 
	C414.570740,87.924759 413.755096,76.523407 410.121063,73.785873 
	C402.042236,67.700096 393.025726,63.195919 383.009644,59.184063 
	C383.563416,63.520741 386.098328,66.163445 387.477448,70.070084 
M285.663879,513.005981 
	C280.362762,507.917328 274.858704,504.163330 266.704132,506.276825 
	C259.972137,508.021667 252.929291,508.479614 245.909958,508.433228 
	C244.529358,508.424133 242.881943,508.415222 242.027283,510.380463 
	C242.792511,510.775604 243.459656,511.356262 244.196625,511.465393 
	C256.536499,513.292542 268.893188,514.974548 281.416504,514.665222 
	C282.883392,514.629089 284.462189,514.914429 285.663879,513.005981 
M441.534454,97.140221 
	C439.467865,92.159142 435.450287,89.360130 430.850311,86.863197 
	C426.143738,100.948730 430.619019,108.926071 443.594147,109.928894 
	C444.118408,105.725868 443.216187,101.761078 441.534454,97.140221 
z"/>
</svg>